# Blender 4.0.2
# www.blender.org
mtllib trap.mtl
o Plane
v -1.000000 0.000000 0.500000
v 0.500000 0.000000 1.000000
v 1.000000 0.000000 -0.500000
v -0.500000 0.000000 -1.000000
v -1.000000 0.000000 -0.500000
v -0.500000 0.000000 1.000000
v 1.000000 0.000000 0.500000
v 0.500000 0.000000 -1.000000
v 0.000000 0.000000 -0.500000
v 0.000000 0.000000 0.500000
v -0.500000 0.000000 0.000000
v 0.500000 0.000000 0.000000
v 0.500000 1.000000 0.500000
v -0.500000 1.000000 0.500000
v -0.500000 1.000000 -0.500000
v 0.500000 1.000000 -0.500000
vn 0.6667 0.3333 -0.6667
vn -0.6667 0.3333 -0.6667
vn 0.6667 0.3333 0.6667
vn -0.6667 0.3333 0.6667
vt 0.750000 0.750000
vt 1.000000 0.750000
vt 0.750000 1.000000
vt 0.250000 0.750000
vt 0.500000 0.750000
vt 0.250000 1.000000
vt 0.250000 0.250000
vt 0.500000 0.250000
vt 0.250000 0.500000
vt 0.750000 0.250000
vt 1.000000 0.250000
vt 0.750000 0.500000
vt 0.750000 0.000000
vt 0.000000 0.250000
vt 0.250000 0.000000
vt 0.000000 0.750000
s 0
f 16/1/1 3/2/1 8/3/1
f 15/4/1 9/5/1 4/6/1
f 14/7/1 10/8/1 11/9/1
f 13/10/1 7/11/1 12/12/1
f 10/8/2 13/10/2 12/12/2
f 2/13/3 7/11/3 13/10/3
f 1/14/2 14/7/2 11/9/2
f 6/15/3 10/8/3 14/7/3
f 5/16/2 15/4/2 4/6/2
f 9/5/2 16/1/2 8/3/2
f 12/12/3 3/2/3 16/1/3
f 9/5/3 15/4/3 11/9/3
f 1/14/4 6/15/4 14/7/4
f 9/5/4 12/12/4 16/1/4
f 5/16/4 11/9/4 15/4/4
f 10/8/4 2/13/4 13/10/4
